<mxfile host="65bd71144e">
    <diagram id="TPe7ME86zk2KejeSCQ_U" name="Page-1">
        <mxGraphModel dx="1204" dy="642" grid="1" gridSize="10" guides="1" tooltips="1" connect="1" arrows="1" fold="1" page="1" pageScale="1" pageWidth="850" pageHeight="1100" math="0" shadow="0">
            <root>
                <mxCell id="0"/>
                <mxCell id="1" parent="0"/>
                <mxCell id="IBs-eTSiGj0zY48sm3EO-2" style="edgeStyle=orthogonalEdgeStyle;rounded=0;orthogonalLoop=1;jettySize=auto;html=1;" parent="1" source="IBs-eTSiGj0zY48sm3EO-1" edge="1">
                    <mxGeometry relative="1" as="geometry">
                        <mxPoint x="420" y="110" as="targetPoint"/>
                    </mxGeometry>
                </mxCell>
                <mxCell id="IBs-eTSiGj0zY48sm3EO-1" value="start" style="strokeWidth=2;html=1;shape=mxgraph.flowchart.terminator;whiteSpace=wrap;" parent="1" vertex="1">
                    <mxGeometry x="370" y="10" width="100" height="60" as="geometry"/>
                </mxCell>
                <mxCell id="IBs-eTSiGj0zY48sm3EO-8" style="edgeStyle=orthogonalEdgeStyle;rounded=0;orthogonalLoop=1;jettySize=auto;html=1;" parent="1" source="IBs-eTSiGj0zY48sm3EO-3" edge="1">
                    <mxGeometry relative="1" as="geometry">
                        <mxPoint x="420" y="230" as="targetPoint"/>
                    </mxGeometry>
                </mxCell>
                <mxCell id="IBs-eTSiGj0zY48sm3EO-3" value="year input" style="rounded=0;whiteSpace=wrap;html=1;" parent="1" vertex="1">
                    <mxGeometry x="360" y="110" width="120" height="60" as="geometry"/>
                </mxCell>
                <mxCell id="IBs-eTSiGj0zY48sm3EO-17" value="finish" style="strokeWidth=2;html=1;shape=mxgraph.flowchart.terminator;whiteSpace=wrap;" parent="1" vertex="1">
                    <mxGeometry x="375" y="600" width="100" height="60" as="geometry"/>
                </mxCell>
                <mxCell id="5" style="edgeStyle=none;html=1;" parent="1" source="2" edge="1">
                    <mxGeometry relative="1" as="geometry">
                        <mxPoint x="240" y="320" as="targetPoint"/>
                        <Array as="points">
                            <mxPoint x="240" y="290"/>
                        </Array>
                    </mxGeometry>
                </mxCell>
                <mxCell id="7" style="edgeStyle=none;html=1;" parent="1" source="2" edge="1">
                    <mxGeometry relative="1" as="geometry">
                        <mxPoint x="600" y="320" as="targetPoint"/>
                        <Array as="points">
                            <mxPoint x="600" y="290"/>
                        </Array>
                    </mxGeometry>
                </mxCell>
                <mxCell id="2" value="&lt;span&gt;a multiple of 4 and&amp;nbsp;&lt;/span&gt;&lt;br&gt;&lt;span&gt;nor a multiple of 100&lt;/span&gt;" style="rhombus;whiteSpace=wrap;html=1;" parent="1" vertex="1">
                    <mxGeometry x="360" y="230" width="120" height="120" as="geometry"/>
                </mxCell>
                <mxCell id="17" style="edgeStyle=none;html=1;entryX=-0.01;entryY=0.383;entryDx=0;entryDy=0;entryPerimeter=0;" parent="1" source="6" target="IBs-eTSiGj0zY48sm3EO-17" edge="1">
                    <mxGeometry relative="1" as="geometry"/>
                </mxCell>
                <mxCell id="6" value="1" style="shape=document;whiteSpace=wrap;html=1;boundedLbl=1;" parent="1" vertex="1">
                    <mxGeometry x="180" y="320" width="120" height="80" as="geometry"/>
                </mxCell>
                <mxCell id="9" style="edgeStyle=none;html=1;" parent="1" source="8" edge="1">
                    <mxGeometry relative="1" as="geometry">
                        <mxPoint x="440" y="390" as="targetPoint"/>
                        <Array as="points">
                            <mxPoint x="440" y="365"/>
                        </Array>
                    </mxGeometry>
                </mxCell>
                <mxCell id="11" style="edgeStyle=none;html=1;" parent="1" source="8" edge="1">
                    <mxGeometry relative="1" as="geometry">
                        <mxPoint x="720" y="420" as="targetPoint"/>
                        <Array as="points">
                            <mxPoint x="720" y="365"/>
                        </Array>
                    </mxGeometry>
                </mxCell>
                <mxCell id="8" value="a mulyiple of 400" style="rhombus;whiteSpace=wrap;html=1;" parent="1" vertex="1">
                    <mxGeometry x="550" y="320" width="100" height="90" as="geometry"/>
                </mxCell>
                <mxCell id="16" style="edgeStyle=none;html=1;entryX=0.5;entryY=0;entryDx=0;entryDy=0;entryPerimeter=0;" parent="1" source="10" target="IBs-eTSiGj0zY48sm3EO-17" edge="1">
                    <mxGeometry relative="1" as="geometry"/>
                </mxCell>
                <mxCell id="10" value="1" style="shape=document;whiteSpace=wrap;html=1;boundedLbl=1;" parent="1" vertex="1">
                    <mxGeometry x="365" y="390" width="120" height="80" as="geometry"/>
                </mxCell>
                <mxCell id="13" style="edgeStyle=none;html=1;" parent="1" source="12" edge="1">
                    <mxGeometry relative="1" as="geometry">
                        <mxPoint x="720" y="530" as="targetPoint"/>
                    </mxGeometry>
                </mxCell>
                <mxCell id="12" value="else" style="rhombus;whiteSpace=wrap;html=1;" parent="1" vertex="1">
                    <mxGeometry x="680" y="420" width="80" height="80" as="geometry"/>
                </mxCell>
                <mxCell id="15" style="edgeStyle=none;html=1;entryX=1;entryY=0.5;entryDx=0;entryDy=0;entryPerimeter=0;" parent="1" source="14" target="IBs-eTSiGj0zY48sm3EO-17" edge="1">
                    <mxGeometry relative="1" as="geometry"/>
                </mxCell>
                <mxCell id="14" value="0" style="shape=document;whiteSpace=wrap;html=1;boundedLbl=1;" parent="1" vertex="1">
                    <mxGeometry x="660" y="540" width="120" height="80" as="geometry"/>
                </mxCell>
                <mxCell id="18" value="yes" style="text;html=1;align=center;verticalAlign=middle;resizable=0;points=[];autosize=1;strokeColor=none;fillColor=none;" vertex="1" parent="1">
                    <mxGeometry x="245" y="260" width="30" height="20" as="geometry"/>
                </mxCell>
                <mxCell id="19" value="no" style="text;html=1;align=center;verticalAlign=middle;resizable=0;points=[];autosize=1;strokeColor=none;fillColor=none;" vertex="1" parent="1">
                    <mxGeometry x="555" y="260" width="30" height="20" as="geometry"/>
                </mxCell>
                <mxCell id="20" value="yes" style="text;html=1;align=center;verticalAlign=middle;resizable=0;points=[];autosize=1;strokeColor=none;fillColor=none;" vertex="1" parent="1">
                    <mxGeometry x="495" y="330" width="30" height="20" as="geometry"/>
                </mxCell>
                <mxCell id="21" value="no" style="text;html=1;align=center;verticalAlign=middle;resizable=0;points=[];autosize=1;strokeColor=none;fillColor=none;" vertex="1" parent="1">
                    <mxGeometry x="685" y="340" width="30" height="20" as="geometry"/>
                </mxCell>
            </root>
        </mxGraphModel>
    </diagram>
</mxfile>